<svg xmlns="http://www.w3.org/2000/svg" viewBox="0 0 500 500">
  <!-- Androide 18 SVG -->
  <!-- Cabeza -->
  <circle cx="250" cy="150" r="100" fill="#FFD700" stroke="#000" stroke-width="3"/>
  <!-- Pelo -->
  <path d="M150 150 L170 100 L190 150 L210 100 L230 150 L250 100 L270 150 L290 100 L310 150 L330 100 L350 150 Z" fill="#FFD700" stroke="#000" stroke-width="2"/>
  <!-- Cara -->
  <circle cx="250" cy="160" r="80" fill="#FFC0CB" stroke="#000" stroke-width="2"/>
  <!-- Ojos -->
  <ellipse cx="220" cy="140" rx="10" ry="15" fill="#FFF" stroke="#000" stroke-width="2"/>
  <ellipse cx="280" cy="140" rx="10" ry="15" fill="#FFF" stroke="#000" stroke-width="2"/>
  <circle cx="220" cy="140" r="5" fill="#87CEEB"/>
  <circle cx="280" cy="140" r="5" fill="#87CEEB"/>
  <!-- Nariz -->
  <path d="M250 160 L245 170 L255 170 Z" fill="#000"/>
  <!-- Boca -->
  <path d="M230 180 Q250 190 270 180" fill="none" stroke="#000" stroke-width="2"/>
  <!-- Pendientes -->
  <circle cx="180" cy="160" r="5" fill="#FFF" stroke="#000" stroke-width="1"/>
  <circle cx="320" cy="160" r="5" fill="#FFF" stroke="#000" stroke-width="1"/>
  <!-- Cuerpo -->
  <path d="M200 250 L180 350 L200 400 L250 420 L300 400 L320 350 L300 250 Z" fill="#000080" stroke="#000" stroke-width="3"/>
  <!-- Chaqueta -->
  <path d="M200 250 L180 350 L200 400 L250 420 L300 400 L320 350 L300 250 Z" fill="#000080" stroke="#000" stroke-width="3"/>
  <!-- Camiseta -->
  <rect x="210" y="250" width="80" height="100" fill="#FFFFFF" stroke="#000" stroke-width="2"/>
  <!-- Brazos -->
  <path d="M200 250 L150 350" fill="none" stroke="#FFC0CB" stroke-width="30" stroke-linecap="round"/>
  <path d="M300 250 L350 350" fill="none" stroke="#FFC0CB" stroke-width="30" stroke-linecap="round"/>
  <!-- Manos -->
  <circle cx="150" cy="350" r="20" fill="#FFC0CB" stroke="#000" stroke-width="2"/>
  <circle cx="350" cy="350" r="20" fill="#FFC0CB" stroke="#000" stroke-width="2"/>
  <!-- Piernas -->
  <path d="M220 400 L200 480" fill="none" stroke="#0000FF" stroke-width="30" stroke-linecap="round"/>
  <path d="M280 400 L300 480" fill="none" stroke="#0000FF" stroke-width="30" stroke-linecap="round"/>
  <!-- Zapatos -->
  <ellipse cx="200" cy="490" rx="25" ry="15" fill="#000" stroke="#000" stroke-width="2"/>
  <ellipse cx="300" cy="490" rx="25" ry="15" fill="#000" stroke="#000" stroke-width="2"/>
</svg>