<svg xmlns="http://www.w3.org/2000/svg" viewBox="0 0 500 500">
  <!-- Beerus SVG -->
  <!-- Cabeza -->
  <path d="M250 50 L200 150 L220 250 L280 250 L300 150 Z" fill="#9370DB" stroke="#000" stroke-width="3"/>
  <!-- Orejas -->
  <path d="M200 150 L150 80 L180 180 Z" fill="#9370DB" stroke="#000" stroke-width="2"/>
  <path d="M300 150 L350 80 L320 180 Z" fill="#9370DB" stroke="#000" stroke-width="2"/>
  <!-- Cara -->
  <ellipse cx="250" cy="170" rx="60" ry="80" fill="#9370DB" stroke="#000" stroke-width="2"/>
  <!-- Ojos -->
  <ellipse cx="230" cy="150" rx="15" ry="25" fill="#FFF" stroke="#000" stroke-width="2"/>
  <ellipse cx="270" cy="150" rx="15" ry="25" fill="#FFF" stroke="#000" stroke-width="2"/>
  <ellipse cx="230" cy="150" rx="5" ry="15" fill="#FFD700"/>
  <ellipse cx="270" cy="150" rx="5" ry="15" fill="#FFD700"/>
  <!-- Nariz -->
  <path d="M250 170 L245 180 L255 180 Z" fill="#000"/>
  <!-- Boca -->
  <path d="M230 190 Q250 200 270 190" fill="none" stroke="#000" stroke-width="2"/>
  <!-- Cuerpo -->
  <path d="M220 250 L200 350 L220 400 L250 420 L280 400 L300 350 L280 250 Z" fill="#9370DB" stroke="#000" stroke-width="3"/>
  <!-- Ropa -->
  <path d="M220 250 L200 350 L220 400 L250 420 L280 400 L300 350 L280 250 Z" fill="#9370DB" stroke="#000" stroke-width="3"/>
  <!-- Collar -->
  <ellipse cx="250" cy="260" rx="40" ry="15" fill="#FFD700" stroke="#000" stroke-width="2"/>
  <!-- Brazos -->
  <path d="M220 250 L170 350" fill="none" stroke="#9370DB" stroke-width="20" stroke-linecap="round"/>
  <path d="M280 250 L330 350" fill="none" stroke="#9370DB" stroke-width="20" stroke-linecap="round"/>
  <!-- Manos -->
  <circle cx="170" cy="350" r="15" fill="#9370DB" stroke="#000" stroke-width="2"/>
  <circle cx="330" cy="350" r="15" fill="#9370DB" stroke="#000" stroke-width="2"/>
  <!-- Piernas -->
  <path d="M230 400 L210 480" fill="none" stroke="#9370DB" stroke-width="20" stroke-linecap="round"/>
  <path d="M270 400 L290 480" fill="none" stroke="#9370DB" stroke-width="20" stroke-linecap="round"/>
  <!-- Pies -->
  <ellipse cx="210" cy="490" rx="20" ry="10" fill="#9370DB" stroke="#000" stroke-width="2"/>
  <ellipse cx="290" cy="490" rx="20" ry="10" fill="#9370DB" stroke="#000" stroke-width="2"/>
  <!-- Cola -->
  <path d="M250 400 Q200 450 180 500" fill="none" stroke="#9370DB" stroke-width="15" stroke-linecap="round"/>
</svg>