<svg xmlns="http://www.w3.org/2000/svg" viewBox="0 0 500 500">
  <!-- Whis - Dragon Ball Super -->
  <defs>
    <linearGradient id="staffGradient" x1="0%" y1="0%" x2="100%" y2="100%">
      <stop offset="0%" stop-color="#4169E1" />
      <stop offset="100%" stop-color="#00BFFF" />
    </linearGradient>
  </defs>
  
  <!-- Cabeza -->
  <ellipse cx="250" cy="120" rx="70" ry="80" fill="#B0E0E6" />
  
  <!-- Cabello -->
  <path d="M250 40 Q300 60 320 120 Q270 100 250 120 Q230 100 180 120 Q200 60 250 40" fill="#FFFFFF" />
  <path d="M250 40 L250 10 Q270 15 280 30 Z" fill="#FFFFFF" />
  
  <!-- Cara -->
  <ellipse cx="230" cy="110" rx="10" ry="5" fill="#000" />
  <ellipse cx="270" cy="110" rx="10" ry="5" fill="#000" />
  <path d="M240 130 Q250 140 260 130" stroke="#000" stroke-width="2" fill="none" />
  
  <!-- Cuerpo -->
  <path d="M220 200 Q250 210 280 200 L300 450 Q250 470 200 450 Z" fill="#4169E1" />
  
  <!-- Cuello -->
  <rect x="235" y="160" width="30" height="40" fill="#B0E0E6" />
  
  <!-- Túnica -->
  <path d="M180 220 Q250 240 320 220 L340 400 Q250 420 160 400 Z" fill="#4169E1" />
  <path d="M200 240 Q250 260 300 240 L310 380 Q250 400 190 380 Z" fill="#87CEEB" />
  
  <!-- Brazos -->
  <path d="M180 220 Q150 260 130 350" stroke="#B0E0E6" stroke-width="30" fill="none" />
  <path d="M320 220 Q350 260 370 350" stroke="#B0E0E6" stroke-width="30" fill="none" />
  
  <!-- Manos -->
  <circle cx="130" cy="350" r="20" fill="#B0E0E6" />
  <circle cx="370" cy="350" r="20" fill="#B0E0E6" />
  
  <!-- Bastón -->
  <line x1="130" y1="350" x2="130" y2="150" stroke="url(#staffGradient)" stroke-width="10" />
  <circle cx="130" cy="140" r="20" fill="#00BFFF" />
  
  <!-- Detalles de la túnica -->
  <path d="M220 280 L280 280" stroke="#FFFFFF" stroke-width="5" />
  <path d="M210 320 L290 320" stroke="#FFFFFF" stroke-width="5" />
</svg>