<svg xmlns="http://www.w3.org/2000/svg" viewBox="0 0 500 500">
  <!-- Yamcha SVG -->
  <!-- Cabeza -->
  <circle cx="250" cy="150" r="100" fill="#8B4513" stroke="#000" stroke-width="3"/>
  <!-- Pelo -->
  <path d="M250 50 L200 120 L180 80 L170 130 L150 90 L140 150 L130 100 L120 160 L200 200 L300 200 L380 160 L370 100 L360 150 L350 90 L330 130 L320 80 L300 120 Z" fill="#000" stroke="#000" stroke-width="2"/>
  <!-- Cara -->
  <circle cx="250" cy="160" r="80" fill="#FFC0CB" stroke="#000" stroke-width="2"/>
  <!-- Cicatriz -->
  <path d="M210 130 L230 150" fill="none" stroke="#FF0000" stroke-width="3"/>
  <path d="M210 150 L230 130" fill="none" stroke="#FF0000" stroke-width="3"/>
  <!-- Ojos -->
  <ellipse cx="220" cy="140" rx="10" ry="15" fill="#FFF" stroke="#000" stroke-width="2"/>
  <ellipse cx="280" cy="140" rx="10" ry="15" fill="#FFF" stroke="#000" stroke-width="2"/>
  <circle cx="220" cy="140" r="5" fill="#000"/>
  <circle cx="280" cy="140" r="5" fill="#000"/>
  <!-- Nariz -->
  <path d="M250 160 L245 170 L255 170 Z" fill="#000"/>
  <!-- Boca -->
  <path d="M230 180 Q250 190 270 180" fill="none" stroke="#000" stroke-width="2"/>
  <!-- Cuerpo -->
  <path d="M200 250 L180 350 L200 400 L250 420 L300 400 L320 350 L300 250 Z" fill="#FFA500" stroke="#000" stroke-width="3"/>
  <!-- Gi naranja -->
  <path d="M200 250 L180 350 L200 400 L250 420 L300 400 L320 350 L300 250 Z" fill="#FFA500" stroke="#000" stroke-width="3"/>
  <!-- Cinturón -->
  <rect x="180" y="320" width="140" height="20" fill="#0000FF" stroke="#000" stroke-width="2"/>
  <!-- Brazos -->
  <path d="M200 250 L150 350" fill="none" stroke="#FFC0CB" stroke-width="30" stroke-linecap="round"/>
  <path d="M300 250 L350 350" fill="none" stroke="#FFC0CB" stroke-width="30" stroke-linecap="round"/>
  <!-- Manos -->
  <circle cx="150" cy="350" r="20" fill="#FFC0CB" stroke="#000" stroke-width="2"/>
  <circle cx="350" cy="350" r="20" fill="#FFC0CB" stroke="#000" stroke-width="2"/>
  <!-- Piernas -->
  <path d="M220 400 L200 480" fill="none" stroke="#0000FF" stroke-width="30" stroke-linecap="round"/>
  <path d="M280 400 L300 480" fill="none" stroke="#0000FF" stroke-width="30" stroke-linecap="round"/>
  <!-- Zapatos -->
  <ellipse cx="200" cy="490" rx="25" ry="15" fill="#FF0000" stroke="#000" stroke-width="2"/>
  <ellipse cx="300" cy="490" rx="25" ry="15" fill="#FF0000" stroke="#000" stroke-width="2"/>
</svg>